<svg width="34" height="28" viewBox="0 0 34 28" fill="none" xmlns="http://www.w3.org/2000/svg">
<path d="M7.92 27.96C5.41333 27.96 3.52 27.0533 2.24 25.24C1.01333 23.3733 0.4 20.7867 0.4 17.48C0.4 13.6933 1.33333 10.36 3.2 7.48C5.06667 4.6 7.92 2.22667 11.76 0.359998L14.32 5.48C11.92 6.70667 10.1067 8.12 8.88 9.72C7.70667 11.2667 7.12 13.24 7.12 15.64C7.28 15.5867 7.54667 15.56 7.92 15.56C9.62667 15.56 11.0667 16.0933 12.24 17.16C13.4667 18.1733 14.08 19.5867 14.08 21.4C14.08 23.4267 13.4933 25.0267 12.32 26.2C11.1467 27.3733 9.68 27.96 7.92 27.96ZM26.8 27.96C24.2933 27.96 22.4 27.0533 21.12 25.24C19.8933 23.3733 19.28 20.7867 19.28 17.48C19.28 13.6933 20.2133 10.36 22.08 7.48C23.9467 4.6 26.8 2.22667 30.64 0.359998L33.2 5.48C30.8 6.70667 28.9867 8.12 27.76 9.72C26.5867 11.2667 26 13.24 26 15.64C26.16 15.5867 26.4267 15.56 26.8 15.56C28.5067 15.56 29.9467 16.0933 31.12 17.16C32.3467 18.1733 32.96 19.5867 32.96 21.4C32.96 23.4267 32.3733 25.0267 31.2 26.2C30.0267 27.3733 28.56 27.96 26.8 27.96Z" fill="#C2C2C2"/>
</svg>
