<svg xmlns="http://www.w3.org/2000/svg" viewBox="0 0 68 50">
<path class="cls-1" d="M55.77,35.12a3,3,0,0,0-.15-.29,22.8,22.8,0,0,0-4.38-5.06l0,0,0,0,0,0h0q-1.47-1.4-1.86-1.88A1.76,1.76,0,0,1,49,25.94a17.3,17.3,0,0,1,2.06-3L52.5,21q4-5.27,3.44-6.74L55.8,14a1.34,1.34,0,0,0-.71-.38,3.61,3.61,0,0,0-1.47-.06l-6.6,0a.86.86,0,0,0-.46,0l-.3.07-.11.06-.09.07a1,1,0,0,0-.25.24,1.57,1.57,0,0,0-.23.4,37.42,37.42,0,0,1-2.45,5.15q-.85,1.42-1.56,2.46a11.86,11.86,0,0,1-1.19,1.53,8.3,8.3,0,0,1-.87.79q-.39.3-.6.25l-.39-.09A1.52,1.52,0,0,1,38,24a2.51,2.51,0,0,1-.26-.89q-.07-.54-.08-.93t0-1.1c0-.47,0-.79,0-1q0-.87,0-1.89t.06-1.61q0-.6,0-1.26a5.29,5.29,0,0,0-.08-1,3.56,3.56,0,0,0-.24-.73,1.23,1.23,0,0,0-.47-.55,2.65,2.65,0,0,0-.77-.31,15.24,15.24,0,0,0-3.09-.3q-4.26,0-5.48.55a3.09,3.09,0,0,0-.87.69q-.41.5-.11.55a2.81,2.81,0,0,1,1.95,1l.14.28a4.38,4.38,0,0,1,.32,1.05,10.63,10.63,0,0,1,.21,1.67,17.84,17.84,0,0,1,0,2.86q-.11,1.19-.22,1.86A3.72,3.72,0,0,1,28.79,24a4.54,4.54,0,0,1-.28.5.39.39,0,0,1-.11.11,1.72,1.72,0,0,1-.62.11,1.45,1.45,0,0,1-.78-.32,5.5,5.5,0,0,1-1-.88A11.79,11.79,0,0,1,24.94,22q-.62-1-1.28-2.38l-.37-.66q-.34-.64-.94-1.87T21.3,14.7a1.51,1.51,0,0,0-.55-.73l-.11-.07a1.57,1.57,0,0,0-.37-.19,2.43,2.43,0,0,0-.53-.15l-6.28,0a1.6,1.6,0,0,0-1.31.44l-.09.14a.74.74,0,0,0-.07.37,1.82,1.82,0,0,0,.14.62q1.37,3.23,3,6.23t2.81,4.83q1.19,1.83,2.43,3.46T22,31.76q.4.46.63.69l.57.55a13.59,13.59,0,0,0,1.61,1.32,27.55,27.55,0,0,0,2.36,1.51,12.81,12.81,0,0,0,3,1.21,10.42,10.42,0,0,0,3.34.38h2.63a1.83,1.83,0,0,0,1.21-.5l.09-.11a1.52,1.52,0,0,0,.17-.42,2.33,2.33,0,0,0,.08-.63A7.55,7.55,0,0,1,37.88,34a4.67,4.67,0,0,1,.39-1.19,2.93,2.93,0,0,1,.49-.68,2,2,0,0,1,.39-.33l.18-.08a1.45,1.45,0,0,1,1.29.36A7.6,7.6,0,0,1,42,33.38q.65.79,1.57,1.78a10.78,10.78,0,0,0,1.6,1.47l.46.27a5.58,5.58,0,0,0,1.19.5,2.57,2.57,0,0,0,1.28.11L54,37.42a2.66,2.66,0,0,0,1.35-.29,1.14,1.14,0,0,0,.57-.63,1.77,1.77,0,0,0,0-.78A2.88,2.88,0,0,0,55.77,35.12Z" fill="#fff"/>
</svg>
