<svg xmlns="http://www.w3.org/2000/svg" viewBox="0 0 50 50">
<path class="cls-1" d="M40.5,15.39a12.7,12.7,0,0,1-3.65,1,6.39,6.39,0,0,0,2.8-3.52,12.82,12.82,0,0,1-4,1.54,6.36,6.36,0,0,0-10.84,5.8,18.05,18.05,0,0,1-13.11-6.64,6.37,6.37,0,0,0,2,8.49,6.36,6.36,0,0,1-2.88-.8v.08a6.37,6.37,0,0,0,5.1,6.24,6.44,6.44,0,0,1-1.68.22,6.1,6.1,0,0,1-1.2-.12,6.36,6.36,0,0,0,5.94,4.42A12.76,12.76,0,0,1,11,34.82a13.53,13.53,0,0,1-1.52-.09,18,18,0,0,0,9.75,2.86c11.7,0,18.09-9.69,18.09-18.09l0-.82A12.7,12.7,0,0,0,40.5,15.39Z" fill="#fff"/>
</svg>
