<svg width="16" height="16" viewBox="0 0 16 16" fill="none" xmlns="http://www.w3.org/2000/svg">
<path d="M10.477 8.00008L15.9026 2.5743C16.0328 2.44405 16.0328 2.23292 15.9026 2.10267L13.8981 0.0977288C13.8356 0.035189 13.7505 0 13.6623 0C13.5739 0 13.489 0.035189 13.4265 0.0977288L8.00055 5.52368L2.5746 0.0977288C2.44952 -0.0273507 2.22804 -0.0273507 2.10297 0.0977288L0.0983585 2.10267C-0.031891 2.23292 -0.031891 2.44405 0.0983585 2.5743L5.52414 8.00008L0.0983585 13.4259C-0.031891 13.5561 -0.031891 13.7672 0.0983585 13.8975L2.10297 15.9023C2.16551 15.9648 2.25039 16 2.33878 16C2.42717 16 2.51206 15.9648 2.5746 15.9023L8.00055 10.4763L13.4265 15.9023C13.489 15.9648 13.5739 16 13.6623 16C13.7505 16 13.8356 15.9648 13.8981 15.9023L15.9027 13.8975C16.033 13.7672 16.033 13.5559 15.9027 13.4259L10.477 8.00008Z" fill="currentColor"/>
</svg>
