<svg viewBox="0 0 20 21" fill="none" xmlns="http://www.w3.org/2000/svg">
<path d="M11.8026 13.9952C13.0117 13.3458 13.966 12.462 14.6652 11.3432C15.3646 10.2248 15.7143 9.00673 15.7143 7.68909C15.7143 6.3714 15.3646 5.15341 14.6652 4.03473C13.966 2.9162 13.0117 2.03225 11.8026 1.38276C10.5935 0.733381 9.27845 0.408813 7.8572 0.408813C6.43606 0.408813 5.12099 0.73358 3.91181 1.38296C2.70279 2.03235 1.74852 2.9163 1.04922 4.03488C0.349752 5.15341 0 6.37135 0 7.68909C0 8.81703 0.264415 9.87918 0.792619 10.8743C1.32082 11.8697 2.04632 12.7087 2.96888 13.3912C2.89453 13.6189 2.81826 13.8271 2.74012 14.017C2.66194 14.2065 2.56902 14.3889 2.46105 14.5644C2.35315 14.7399 2.26954 14.8773 2.20996 14.9765C2.15042 15.076 2.05371 15.216 1.91974 15.3959C1.78574 15.5761 1.70013 15.6945 1.66303 15.7513C1.66303 15.7418 1.64806 15.7632 1.61835 15.8154C1.58852 15.8675 1.57179 15.8911 1.56804 15.8866C1.56436 15.8815 1.54943 15.9052 1.52344 15.9574C1.4974 16.0096 1.48434 16.0356 1.48434 16.0356L1.45639 16.1065C1.44529 16.1348 1.43779 16.1631 1.43411 16.1917C1.43036 16.22 1.42848 16.251 1.42848 16.2841C1.42848 16.3171 1.43216 16.3478 1.43966 16.3764C1.45463 16.4995 1.4974 16.5988 1.56804 16.675C1.63876 16.7507 1.71491 16.7885 1.79688 16.7885H1.83038C2.20234 16.7222 2.52234 16.6464 2.79016 16.561C3.93601 16.1818 4.97033 15.575 5.89293 14.7409C6.56249 14.8926 7.21735 14.9684 7.8572 14.9684C9.27833 14.969 10.5936 14.6445 11.8026 13.9952ZM5.55819 12.8081L5.06704 13.2487C4.85868 13.4287 4.62816 13.6138 4.37512 13.8035L4.76584 12.6089L3.68324 11.8126C2.9688 11.2819 2.41457 10.6563 2.02021 9.93581C1.62582 9.21541 1.42872 8.46652 1.42872 7.68914C1.42872 6.72211 1.72089 5.81684 2.30491 4.97317C2.88886 4.12951 3.67574 3.46125 4.66534 2.96815C5.65486 2.47535 6.71889 2.22872 7.85728 2.22872C8.99566 2.22872 10.0598 2.47535 11.0493 2.96815C12.0388 3.4612 12.8257 4.12951 13.4099 4.97317C13.9939 5.81679 14.2859 6.72206 14.2859 7.68914C14.2859 8.65602 13.9939 9.56124 13.4099 10.4049C12.8257 11.2488 12.0388 11.9169 11.0493 12.4098C10.0598 12.9027 8.99578 13.1492 7.85728 13.1492C7.29936 13.1492 6.73015 13.0827 6.14972 12.9501L5.55819 12.8081Z" fill="currentColor"/>
<path d="M19.2075 14.5208C19.7359 13.53 20 12.4662 20 11.3286C20 10.1627 19.7209 9.07238 19.1631 8.05825C18.6049 7.04418 17.8459 6.20037 16.8862 5.52734C17.0572 6.23822 17.1427 6.95862 17.1427 7.68867C17.1427 8.95878 16.8938 10.1627 16.3949 11.3003C15.8965 12.4376 15.1821 13.4423 14.2521 14.3145C13.389 15.1108 12.4068 15.722 11.3055 16.1487C10.2045 16.5751 9.05489 16.7886 7.85694 16.7886C7.6338 16.7886 7.30637 16.7698 6.87488 16.7319C8.37036 17.9829 10.1264 18.6088 12.1427 18.6088C12.7827 18.6088 13.4374 18.5328 14.1071 18.3811C15.0296 19.2155 16.064 19.8219 17.2098 20.2013C17.4776 20.2869 17.7976 20.3625 18.1696 20.4288C18.2589 20.4385 18.3409 20.4051 18.4152 20.3295C18.4896 20.2535 18.5381 20.1495 18.5603 20.0169C18.5568 19.96 18.5603 19.9288 18.5715 19.9242C18.5825 19.9198 18.5806 19.8888 18.5659 19.832C18.5512 19.775 18.5437 19.7466 18.5437 19.7466L18.5158 19.6757C18.5081 19.6569 18.4955 19.6307 18.4768 19.5976C18.4582 19.5648 18.4433 19.5409 18.4321 19.5266C18.4211 19.5124 18.4045 19.4886 18.382 19.4556C18.3598 19.4228 18.3449 19.4013 18.3374 19.3917C18.3002 19.3348 18.2147 19.2164 18.0808 19.0362C17.9467 18.8563 17.8502 18.7165 17.7906 18.617C17.7311 18.5174 17.6474 18.3801 17.5395 18.2045C17.4317 18.0293 17.3386 17.8468 17.2604 17.6571C17.1823 17.4676 17.1061 17.259 17.0317 17.0316C17.954 16.3485 18.6796 15.512 19.2075 14.5208Z" fill="currentColor"/>
</svg>
