<svg viewBox="0 0 16 16" fill="none" xmlns="http://www.w3.org/2000/svg">
<path d="M15.6458 13.9369L11.4716 9.76242C13.4013 6.88871 12.6361 2.99476 9.76242 1.06499C6.88872 -0.864779 2.99477 -0.0995454 1.065 2.77416C-0.864767 5.64787 -0.0995681 9.54182 2.77413 11.4716C4.88743 12.8907 7.64912 12.8907 9.76242 11.4716L13.9367 15.6461C14.4086 16.118 15.1738 16.118 15.6458 15.6461C16.1177 15.1741 16.1178 14.4089 15.6458 13.9369ZM6.27381 12.0029C3.11118 11.9994 0.548252 9.43643 0.544721 6.2738C0.544721 3.10971 3.10972 0.544711 6.27381 0.544711C9.43789 0.544711 12.0029 3.10971 12.0029 6.2738C12.0029 9.43789 9.43789 12.0029 6.27381 12.0029ZM15.2693 15.269C15.1425 15.3959 14.9705 15.4671 14.7912 15.467C14.612 15.4676 14.4399 15.3964 14.3134 15.2693L10.2479 11.2035L11.2035 10.2479L15.269 14.3137C15.5329 14.5775 15.533 15.0052 15.2693 15.269Z" fill="currentColor"/>
<path d="M6.41439 1.07947L6.40027 1.61241C7.77927 1.64811 9.07135 2.294 9.92751 3.37563L10.3448 3.04414C9.39061 1.8391 7.95098 1.11947 6.41439 1.07947Z" fill="currentColor"/>
</svg>
