<svg width="146" height="28" viewBox="0 0 146 28" fill="none" xmlns="http://www.w3.org/2000/svg">
<path d="M7.096 8.56L16.44 9.04L16.632 2.32L1.144 1.68L0.504 26.384L6.936 27.12L7.096 8.56ZM43.7703 26L35.1623 1.328L26.9063 2L20.3463 26.16L27.6743 25.776L28.6343 20.688L34.8103 20.464L36.3143 26.32L43.7703 26ZM33.6903 16.24H29.4983L31.3223 8.688L33.6903 16.24ZM49.8645 24.976C52.7125 26.416 55.2725 26.8 58.5685 26.8C62.5685 26.8 68.3605 25.136 68.3605 20.848C68.3605 18.384 66.3765 15.92 63.4005 14.384C67.3685 13.36 70.1845 11.472 70.1845 8.464C70.1845 4.208 64.0725 1.328 55.7525 1.328C54.2485 1.328 52.7765 1.36 51.2725 1.584L51.3685 9.776C52.2005 9.296 55.7205 8.304 58.2485 8.304C59.8805 8.304 61.0965 8.688 61.0965 9.808C61.0965 11.696 58.1525 12.496 55.4005 12.496L55.4645 15.984C59.0165 16.72 61.1285 17.936 61.1285 19.312C61.1285 20.688 60.0405 21.2 58.6005 21.2C56.5205 21.2 53.7045 20.112 52.1685 18.576L49.8645 24.976ZM94.1187 26.16L93.6707 18.288L85.0308 19.152L84.5507 15.696L91.3028 15.12L90.7908 10.032L83.9107 10.544L83.5908 7.28L92.3908 6.256L91.9748 0.719999L76.9027 2.512L78.7267 25.936L94.1187 26.16ZM112.325 26.448L111.685 9.456L118.789 8.976L118.949 2.896L99.749 1.744L99.717 10.288L105.861 9.872L105.381 27.28L112.325 26.448ZM145.874 26L137.266 1.328L129.01 2L122.45 26.16L129.778 25.776L130.738 20.688L136.914 20.464L138.418 26.32L145.874 26ZM135.794 16.24H131.602L133.426 8.688L135.794 16.24Z" fill="#FFFFFF"/>
</svg>
