<svg xmlns="http://www.w3.org/2000/svg" xmlns:xlink="http://www.w3.org/1999/xlink"><symbol id="arrow-right" viewBox="0 0 28 20"><path d="M18.855.299a.982.982 0 0 0-1.411 0 1.012 1.012 0 0 0 0 1.41l7.155 7.224H.988A.988.988 0 0 0 0 9.932a.999.999 0 0 0 .988 1.011h23.61l-7.154 7.211a1.03 1.03 0 0 0 0 1.425.982.982 0 0 0 1.41 0l8.85-8.934a.988.988 0 0 0 0-1.41L18.854.298z" fill="currentColor"/></symbol><symbol id="close"><path d="M10.477 8l5.426-5.426a.334.334 0 0 0 0-.471L13.898.098a.334.334 0 0 0-.471 0L8 5.524 2.575.098a.343.343 0 0 0-.472 0L.098 2.103a.333.333 0 0 0 0 .471L5.524 8 .098 13.426a.333.333 0 0 0 0 .472l2.005 2.004a.334.334 0 0 0 .472 0L8 10.476l5.426 5.426a.334.334 0 0 0 .471 0l2.005-2.004a.333.333 0 0 0 0-.472L10.477 8z" fill="currentColor"/></symbol><symbol id="dropdown" viewBox="0 0 15 9"><path d="M7.5 8.342c.269 0 .538-.1.743-.3l6.45-6.293c.41-.4.41-1.049 0-1.449a1.07 1.07 0 0 0-1.486 0L7.5 5.868 1.793.3A1.07 1.07 0 0 0 .308.3c-.41.4-.41 1.05 0 1.45l6.45 6.292c.204.2.473.3.742.3z" fill="currentColor"/></symbol><symbol id="eye" viewBox="0 0 489 489"><path d="M244.425 98.725c-93.4 0-178.1 51.1-240.6 134.1-5.1 6.8-5.1 16.3 0 23.1 62.5 83.1 147.2 134.2 240.6 134.2s178.1-51.1 240.6-134.1c5.1-6.8 5.1-16.3 0-23.1-62.5-83.1-147.2-134.2-240.6-134.2zm6.7 248.3c-62 3.9-113.2-47.2-109.3-109.3 3.2-51.2 44.7-92.7 95.9-95.9 62-3.9 113.2 47.2 109.3 109.3-3.3 51.1-44.8 92.6-95.9 95.9zm-3.1-47.4c-33.4 2.1-61-25.4-58.8-58.8 1.7-27.6 24.1-49.9 51.7-51.7 33.4-2.1 61 25.4 58.8 58.8-1.8 27.7-24.2 50-51.7 51.7z" fill="currentColor"/></symbol><symbol id="faq" viewBox="0 0 20 21"><path d="M11.803 13.995c1.209-.65 2.163-1.533 2.862-2.652a6.761 6.761 0 0 0 1.05-3.654c0-1.318-.35-2.536-1.05-3.654-.699-1.119-1.653-2.003-2.862-2.652-1.21-.65-2.525-.974-3.946-.974a8.208 8.208 0 0 0-3.945.974c-1.21.65-2.163 1.533-2.863 2.652A6.761 6.761 0 0 0 0 7.689c0 1.128.264 2.19.793 3.185a7.431 7.431 0 0 0 2.176 2.517c-.074.228-.15.436-.229.626-.078.19-.171.372-.279.547a48.67 48.67 0 0 0-.251.412c-.06.1-.156.24-.29.42-.134.18-.22.298-.257.355 0-.01-.015.012-.045.064-.03.053-.046.076-.05.072-.004-.005-.019.018-.045.07l-.039.079-.028.07a.358.358 0 0 0-.022.086.708.708 0 0 0-.006.092c0 .033.004.064.012.092a.517.517 0 0 0 .128.299c.07.076.147.113.229.113h.033c.372-.066.692-.142.96-.227a8.63 8.63 0 0 0 3.103-1.82c.67.152 1.324.227 1.964.227a8.2 8.2 0 0 0 3.946-.973zm-6.245-1.187l-.491.44c-.208.18-.439.366-.692.556l.39-1.195-1.082-.796A5.802 5.802 0 0 1 2.02 9.936a4.618 4.618 0 0 1-.591-2.247c0-.967.292-1.872.876-2.716.584-.843 1.37-1.512 2.36-2.005a7.062 7.062 0 0 1 3.192-.74c1.139 0 2.203.247 3.192.74.99.493 1.777 1.162 2.36 2.005.585.844.877 1.75.877 2.716 0 .967-.292 1.872-.876 2.716-.584.844-1.371 1.512-2.36 2.005a7.06 7.06 0 0 1-3.193.74 7.653 7.653 0 0 1-1.707-.2l-.592-.142z" fill="currentColor"/><path d="M19.207 14.52A6.68 6.68 0 0 0 20 11.33a6.68 6.68 0 0 0-.837-3.27 7.435 7.435 0 0 0-2.277-2.532 9.21 9.21 0 0 1 .257 2.162c0 1.27-.25 2.474-.748 3.611a9.115 9.115 0 0 1-5.09 4.849 9.467 9.467 0 0 1-3.448.64c-.223 0-.55-.02-.982-.057 1.495 1.25 3.251 1.877 5.268 1.877.64 0 1.294-.076 1.964-.228a8.628 8.628 0 0 0 3.103 1.82c.268.086.588.162.96.228.089.01.17-.024.245-.1a.567.567 0 0 0 .145-.312c-.003-.057 0-.088.012-.093.01-.004.009-.035-.006-.092l-.022-.085-.028-.071a.72.72 0 0 0-.084-.15 1.682 1.682 0 0 1-.05-.07 9.525 9.525 0 0 0-.301-.42c-.134-.18-.23-.32-.29-.419l-.252-.413a3.825 3.825 0 0 1-.279-.547 8.956 8.956 0 0 1-.228-.625 7.455 7.455 0 0 0 2.175-2.511z" fill="currentColor"/></symbol><symbol id="search-light" viewBox="0 0 16 16"><path d="M15.646 13.937l-4.174-4.175a6.268 6.268 0 1 0-1.71 1.71l4.175 4.174a1.209 1.209 0 0 0 1.709-1.71zm-9.372-1.934a5.735 5.735 0 0 1-5.73-5.73 5.73 5.73 0 1 1 5.73 5.73zm8.995 3.266a.675.675 0 0 1-.956 0l-4.065-4.066.956-.955 4.065 4.066a.675.675 0 0 1 0 .955z" fill="currentColor"/><path d="M6.414 1.08l-.014.532a4.652 4.652 0 0 1 3.528 1.764l.417-.332a5.185 5.185 0 0 0-3.93-1.965z" fill="currentColor"/></symbol><symbol id="search" viewBox="0 0 16 16"><path fill-rule="evenodd" clip-rule="evenodd" d="M15.608 13.717l-3.476-3.475c-.018-.019-.04-.032-.059-.049a6.578 6.578 0 1 0-1.88 1.88c.017.02.03.041.048.06l3.476 3.475a1.337 1.337 0 0 0 1.891-1.89zm-9.03-2.841a4.298 4.298 0 1 1 0-8.596 4.298 4.298 0 0 1 0 8.596z" fill="currentColor"/></symbol></svg>